<mxfile host="app.diagrams.net" modified="2021-10-07T08:32:15.492Z" agent="5.0 (Windows)" etag="zfHWX6NnpXxGkZsll42K" version="15.3.1" type="github">
  <diagram id="Yr2QmeQzWUxulfuKqoWn" name="Page-1">
    <mxGraphModel dx="1038" dy="499" grid="1" gridSize="10" guides="1" tooltips="1" connect="1" arrows="1" fold="1" page="1" pageScale="1" pageWidth="827" pageHeight="1169" math="0" shadow="0">
      <root>
        <mxCell id="0" />
        <mxCell id="1" parent="0" />
        <mxCell id="C5WCr_9ebUvNWloEMeqP-1" value="&amp;nbsp;-role&amp;nbsp;" style="edgeStyle=orthogonalEdgeStyle;orthogonalLoop=1;jettySize=auto;html=1;endArrow=open;endFill=0;entryX=0.5;entryY=0;entryDx=0;entryDy=0;" edge="1" parent="1" source="C5WCr_9ebUvNWloEMeqP-12" target="C5WCr_9ebUvNWloEMeqP-5">
          <mxGeometry relative="1" as="geometry">
            <mxPoint x="2715" y="1250" as="sourcePoint" />
            <Array as="points">
              <mxPoint x="2565" y="1150" />
              <mxPoint x="2635" y="1150" />
            </Array>
          </mxGeometry>
        </mxCell>
        <mxCell id="C5WCr_9ebUvNWloEMeqP-2" value="&amp;nbsp;-credentials&amp;nbsp;" style="edgeStyle=orthogonalEdgeStyle;orthogonalLoop=1;jettySize=auto;html=1;entryX=0.003;entryY=0.446;entryDx=0;entryDy=0;entryPerimeter=0;endArrow=open;endFill=0;" edge="1" parent="1" source="C5WCr_9ebUvNWloEMeqP-4" target="C5WCr_9ebUvNWloEMeqP-23">
          <mxGeometry relative="1" as="geometry" />
        </mxCell>
        <mxCell id="C5WCr_9ebUvNWloEMeqP-3" value="&amp;nbsp;-supported_charities&amp;nbsp;" style="edgeStyle=orthogonalEdgeStyle;orthogonalLoop=1;jettySize=auto;html=1;entryX=0;entryY=0.5;entryDx=0;entryDy=0;endArrow=open;endFill=0;" edge="1" parent="1" source="C5WCr_9ebUvNWloEMeqP-4" target="C5WCr_9ebUvNWloEMeqP-28">
          <mxGeometry relative="1" as="geometry">
            <Array as="points">
              <mxPoint x="1575" y="1405" />
            </Array>
          </mxGeometry>
        </mxCell>
        <mxCell id="C5WCr_9ebUvNWloEMeqP-4" value="&lt;p style=&quot;margin: 0px ; margin-top: 4px ; text-align: center&quot;&gt;&lt;b&gt;User&lt;/b&gt;&lt;/p&gt;&lt;hr size=&quot;1&quot;&gt;&lt;p style=&quot;margin: 0px ; margin-left: 4px&quot;&gt;- id: int&lt;/p&gt;&lt;hr size=&quot;1&quot;&gt;&lt;p style=&quot;margin: 0px ; margin-left: 4px&quot;&gt;+ User(): cnstr&lt;/p&gt;&lt;p style=&quot;margin: 0px ; margin-left: 4px&quot;&gt;+ User(per: IPersonalData, adr: IAdressData,&lt;/p&gt;&lt;p style=&quot;margin: 0px ; margin-left: 4px&quot;&gt;&lt;span&gt;	&lt;span&gt;	&lt;/span&gt;&lt;/span&gt;&lt;span style=&quot;white-space: pre&quot;&gt;	&lt;/span&gt;con: IContactData, cust: ICustomizationData,&lt;/p&gt;&lt;p style=&quot;margin: 0px ; margin-left: 4px&quot;&gt;&lt;span&gt;	&lt;/span&gt;&lt;span&gt;	&lt;/span&gt;&lt;span style=&quot;white-space: pre&quot;&gt;	&lt;/span&gt;sc: ISupportedCharities, cred: ICredentials)&lt;/p&gt;&lt;p style=&quot;margin: 0px ; margin-left: 4px&quot;&gt;+ getAdress(): IAdressData&lt;/p&gt;&lt;p style=&quot;margin: 0px ; margin-left: 4px&quot;&gt;+ getContact(): IContactData&lt;/p&gt;&lt;p style=&quot;margin: 0px ; margin-left: 4px&quot;&gt;+ getPersonalInfo(): IPeronalData&lt;/p&gt;&lt;p style=&quot;margin: 0px ; margin-left: 4px&quot;&gt;+ getCustomization(): ICustomizationData&lt;/p&gt;&lt;p style=&quot;margin: 0px ; margin-left: 4px&quot;&gt;+ getCredentials(): ICredentials&lt;/p&gt;&lt;p style=&quot;margin: 0px ; margin-left: 4px&quot;&gt;+ getSupportedCharities(): ISupportedCharities&amp;nbsp;&lt;/p&gt;&lt;p style=&quot;margin: 0px 0px 0px 4px&quot;&gt;+ setAdress(new: IAdressData): boolean&lt;/p&gt;&lt;p style=&quot;margin: 0px 0px 0px 4px&quot;&gt;+ setContact(new: IContactData): boolean&lt;/p&gt;&lt;p style=&quot;margin: 0px 0px 0px 4px&quot;&gt;+ setPersonalInfo(new: IPeronalData): boolean&lt;/p&gt;&lt;p style=&quot;margin: 0px 0px 0px 4px&quot;&gt;+ setCustomization(new: ICustomizationData): boolean&lt;/p&gt;&lt;p style=&quot;margin: 0px 0px 0px 4px&quot;&gt;+ setCredentials(new: ICredentials): boolean&lt;/p&gt;&lt;p style=&quot;margin: 0px 0px 0px 4px&quot;&gt;+ setSupportedCharities(new: ISupportedCharities): boolean&amp;nbsp;&lt;/p&gt;" style="verticalAlign=top;align=left;overflow=fill;fontSize=12;fontFamily=Helvetica;html=1;spacingLeft=0;spacingRight=0;spacing=2;" vertex="1" parent="1">
          <mxGeometry x="1315" y="930" width="340" height="380" as="geometry" />
        </mxCell>
        <mxCell id="C5WCr_9ebUvNWloEMeqP-5" value="&lt;p style=&quot;margin: 0px ; margin-top: 4px ; text-align: center&quot;&gt;&lt;b&gt;Role&lt;/b&gt;&lt;/p&gt;&lt;p style=&quot;margin: 0px ; margin-top: 4px ; text-align: center&quot;&gt;&lt;b&gt;&lt;font style=&quot;font-size: 10px&quot;&gt;&amp;lt;&amp;lt;enum&amp;gt;&amp;gt;&lt;/font&gt;&lt;/b&gt;&lt;/p&gt;&lt;hr size=&quot;1&quot;&gt;&lt;p style=&quot;margin: 0px ; margin-left: 4px&quot;&gt;ADMIN&lt;/p&gt;&lt;p style=&quot;margin: 0px ; margin-left: 4px&quot;&gt;USER&lt;/p&gt;&lt;p style=&quot;margin: 0px ; margin-left: 4px&quot;&gt;UNDEFINED&lt;/p&gt;" style="verticalAlign=top;align=left;overflow=fill;fontSize=12;fontFamily=Helvetica;html=1;spacingLeft=0;spacingRight=0;spacing=2;" vertex="1" parent="1">
          <mxGeometry x="2555" y="1180" width="160" height="100" as="geometry" />
        </mxCell>
        <mxCell id="C5WCr_9ebUvNWloEMeqP-6" value="&lt;p style=&quot;margin: 0px ; margin-top: 4px ; text-align: center&quot;&gt;&lt;b&gt;IRegistrationVerification&lt;/b&gt;&lt;/p&gt;&lt;hr size=&quot;1&quot;&gt;&lt;p style=&quot;margin: 0px ; margin-left: 4px&quot;&gt;+ UsernameExists(username: string): boolean&lt;/p&gt;&lt;p style=&quot;margin: 0px ; margin-left: 4px&quot;&gt;+ EmailInUse(email: string): boolean&lt;/p&gt;&lt;p style=&quot;margin: 0px ; margin-left: 4px&quot;&gt;+ PasswordVerification(password: string): boolean&lt;/p&gt;&lt;p style=&quot;margin: 0px ; margin-left: 4px&quot;&gt;+ PasswordEncryption(password: string): void&lt;/p&gt;&lt;p style=&quot;margin: 0px ; margin-left: 4px&quot;&gt;+ CheckForMissingRequiredData(): boolean&lt;/p&gt;&lt;p style=&quot;margin: 0px ; margin-left: 4px&quot;&gt;&lt;br&gt;&lt;/p&gt;&lt;p style=&quot;margin: 0px ; margin-left: 4px&quot;&gt;+ MatchingCredentials(username: string, password: string) : boolean&lt;br&gt;&lt;/p&gt;" style="verticalAlign=top;align=left;overflow=fill;fontSize=12;fontFamily=Helvetica;html=1;spacingLeft=0;spacingRight=0;spacing=2;shadow=0;glass=0;" vertex="1" parent="1">
          <mxGeometry x="670" y="1230" width="290" height="160" as="geometry" />
        </mxCell>
        <mxCell id="C5WCr_9ebUvNWloEMeqP-7" value="For picture_link,&lt;br&gt;it should be a link&lt;br&gt;that fetches for&lt;br&gt;profile picture" style="html=1;verticalAlign=top;fillColor=#dae8fc;strokeColor=#6c8ebf;" vertex="1" parent="1">
          <mxGeometry x="2170" y="540" width="110" height="70" as="geometry" />
        </mxCell>
        <mxCell id="C5WCr_9ebUvNWloEMeqP-8" value="&lt;p style=&quot;margin: 0px ; margin-top: 4px ; text-align: center&quot;&gt;&lt;b&gt;Charity&lt;/b&gt;&lt;/p&gt;&lt;hr size=&quot;1&quot;&gt;&lt;p style=&quot;margin: 0px ; margin-left: 4px&quot;&gt;...&lt;/p&gt;&lt;hr size=&quot;1&quot;&gt;&lt;p style=&quot;margin: 0px ; margin-left: 4px&quot;&gt;...&lt;/p&gt;" style="verticalAlign=top;align=left;overflow=fill;fontSize=12;fontFamily=Helvetica;html=1;spacingLeft=0;spacingRight=0;spacing=2;" vertex="1" parent="1">
          <mxGeometry x="2465" y="1310" width="80" height="80" as="geometry" />
        </mxCell>
        <mxCell id="C5WCr_9ebUvNWloEMeqP-9" style="edgeStyle=orthogonalEdgeStyle;orthogonalLoop=1;jettySize=auto;html=1;entryX=0;entryY=0.25;entryDx=0;entryDy=0;dashed=1;endArrow=block;endFill=0;" edge="1" parent="1" source="C5WCr_9ebUvNWloEMeqP-10" target="C5WCr_9ebUvNWloEMeqP-32">
          <mxGeometry relative="1" as="geometry" />
        </mxCell>
        <mxCell id="C5WCr_9ebUvNWloEMeqP-10" value="&lt;p style=&quot;margin: 0px ; margin-top: 4px ; text-align: center&quot;&gt;&lt;b&gt;AdressData&lt;/b&gt;&lt;/p&gt;&lt;hr size=&quot;1&quot;&gt;&lt;p style=&quot;margin: 0px ; margin-left: 4px&quot;&gt;- land: string&lt;/p&gt;&lt;p style=&quot;margin: 0px ; margin-left: 4px&quot;&gt;- postcode: string&lt;/p&gt;&lt;p style=&quot;margin: 0px ; margin-left: 4px&quot;&gt;- street_name: string&lt;/p&gt;&lt;p style=&quot;margin: 0px ; margin-left: 4px&quot;&gt;- street_number: int&lt;/p&gt;&lt;p style=&quot;margin: 0px ; margin-left: 4px&quot;&gt;&lt;br&gt;&lt;/p&gt;&lt;hr size=&quot;1&quot;&gt;&lt;p style=&quot;margin: 0px ; margin-left: 4px&quot;&gt;+ Adress(): cnstr&lt;/p&gt;&lt;p style=&quot;margin: 0px ; margin-left: 4px&quot;&gt;+ Adress(land: string, postcode: string,&amp;nbsp;&lt;/p&gt;&lt;p style=&quot;margin: 0px ; margin-left: 4px&quot;&gt;&lt;span style=&quot;white-space: pre&quot;&gt;	&lt;span style=&quot;white-space: pre&quot;&gt;	&lt;/span&gt;&lt;/span&gt;street_name: string, string_number: int): cnstr&lt;/p&gt;&amp;nbsp;+ setLand(new: string): bool&lt;br&gt;&amp;nbsp;+ setPostcode(new: string): bool&lt;br&gt;&amp;nbsp;+ setStreetName(new: string): bool&lt;br&gt;&amp;nbsp;+ setStreetNumber(new: int): bool" style="verticalAlign=top;align=left;overflow=fill;fontSize=12;fontFamily=Helvetica;html=1;spacingLeft=0;spacingRight=0;spacing=2;" vertex="1" parent="1">
          <mxGeometry x="805" y="170" width="310" height="230" as="geometry" />
        </mxCell>
        <mxCell id="C5WCr_9ebUvNWloEMeqP-11" style="edgeStyle=orthogonalEdgeStyle;orthogonalLoop=1;jettySize=auto;html=1;entryX=1;entryY=0.25;entryDx=0;entryDy=0;endArrow=block;endFill=0;dashed=1;" edge="1" parent="1" source="C5WCr_9ebUvNWloEMeqP-12" target="C5WCr_9ebUvNWloEMeqP-23">
          <mxGeometry relative="1" as="geometry" />
        </mxCell>
        <mxCell id="C5WCr_9ebUvNWloEMeqP-12" value="&lt;p style=&quot;margin: 0px ; margin-top: 4px ; text-align: center&quot;&gt;&lt;b&gt;Credentials&lt;/b&gt;&lt;/p&gt;&lt;hr size=&quot;1&quot;&gt;&lt;p style=&quot;margin: 0px ; margin-left: 4px&quot;&gt;&lt;span&gt;- username: string&lt;/span&gt;&lt;br&gt;&lt;/p&gt;&lt;p style=&quot;margin: 0px ; margin-left: 4px&quot;&gt;- password: string&lt;/p&gt;&lt;hr size=&quot;1&quot;&gt;&lt;p style=&quot;margin: 0px ; margin-left: 4px&quot;&gt;+ Credentials(): cnstr&lt;/p&gt;&lt;p style=&quot;margin: 0px ; margin-left: 4px&quot;&gt;+ Credentials(id: int, role: Role, username: string, password: string): cnstr&lt;/p&gt;&lt;p style=&quot;margin: 0px ; margin-left: 4px&quot;&gt;&lt;span&gt;+ setUsername(new: string): bool&lt;/span&gt;&lt;br&gt;&lt;/p&gt;&lt;p style=&quot;margin: 0px ; margin-left: 4px&quot;&gt;+ setPassword(new: string): bool&lt;/p&gt;&lt;p style=&quot;margin: 0px ; margin-left: 4px&quot;&gt;+ setRole(new: string)&lt;/p&gt;" style="verticalAlign=top;align=left;overflow=fill;fontSize=12;fontFamily=Helvetica;html=1;spacingLeft=0;spacingRight=0;spacing=2;" vertex="1" parent="1">
          <mxGeometry x="2255" y="970" width="420" height="160" as="geometry" />
        </mxCell>
        <mxCell id="C5WCr_9ebUvNWloEMeqP-13" style="edgeStyle=orthogonalEdgeStyle;orthogonalLoop=1;jettySize=auto;html=1;entryX=1;entryY=0.5;entryDx=0;entryDy=0;endArrow=open;endFill=0;exitX=0.25;exitY=0;exitDx=0;exitDy=0;" edge="1" parent="1" source="C5WCr_9ebUvNWloEMeqP-4" target="C5WCr_9ebUvNWloEMeqP-29">
          <mxGeometry relative="1" as="geometry">
            <mxPoint x="1345" y="850" as="sourcePoint" />
            <Array as="points">
              <mxPoint x="1385" y="930" />
              <mxPoint x="1385" y="715" />
            </Array>
          </mxGeometry>
        </mxCell>
        <mxCell id="C5WCr_9ebUvNWloEMeqP-14" value="&amp;nbsp;-contact&amp;nbsp;" style="edgeLabel;html=1;align=center;verticalAlign=middle;resizable=0;points=[];" vertex="1" connectable="0" parent="C5WCr_9ebUvNWloEMeqP-13">
          <mxGeometry x="0.1256" y="3" relative="1" as="geometry">
            <mxPoint as="offset" />
          </mxGeometry>
        </mxCell>
        <mxCell id="C5WCr_9ebUvNWloEMeqP-15" value="&amp;nbsp;-adress&amp;nbsp;" style="edgeStyle=orthogonalEdgeStyle;orthogonalLoop=1;jettySize=auto;html=1;entryX=0.5;entryY=1;entryDx=0;entryDy=0;endArrow=open;endFill=0;exitX=0.393;exitY=0;exitDx=0;exitDy=0;exitPerimeter=0;" edge="1" parent="1" source="C5WCr_9ebUvNWloEMeqP-4" target="C5WCr_9ebUvNWloEMeqP-32">
          <mxGeometry relative="1" as="geometry">
            <mxPoint x="1405" y="850" as="sourcePoint" />
            <Array as="points">
              <mxPoint x="1425" y="690" />
              <mxPoint x="1310" y="690" />
            </Array>
          </mxGeometry>
        </mxCell>
        <mxCell id="C5WCr_9ebUvNWloEMeqP-16" style="edgeStyle=orthogonalEdgeStyle;orthogonalLoop=1;jettySize=auto;html=1;entryX=0.5;entryY=1;entryDx=0;entryDy=0;endArrow=open;endFill=0;exitX=0.5;exitY=0;exitDx=0;exitDy=0;" edge="1" parent="1" source="C5WCr_9ebUvNWloEMeqP-4" target="C5WCr_9ebUvNWloEMeqP-38">
          <mxGeometry relative="1" as="geometry">
            <mxPoint x="1465" y="870" as="sourcePoint" />
            <Array as="points">
              <mxPoint x="1482" y="930" />
              <mxPoint x="1482" y="690" />
              <mxPoint x="1580" y="690" />
            </Array>
          </mxGeometry>
        </mxCell>
        <mxCell id="C5WCr_9ebUvNWloEMeqP-17" value="&amp;nbsp;-personal_info" style="edgeLabel;html=1;align=center;verticalAlign=middle;resizable=0;points=[];" vertex="1" connectable="0" parent="C5WCr_9ebUvNWloEMeqP-16">
          <mxGeometry x="-0.0857" y="-1" relative="1" as="geometry">
            <mxPoint as="offset" />
          </mxGeometry>
        </mxCell>
        <mxCell id="C5WCr_9ebUvNWloEMeqP-18" value="&amp;nbsp;-customization&amp;nbsp;" style="edgeStyle=orthogonalEdgeStyle;orthogonalLoop=1;jettySize=auto;html=1;entryX=0;entryY=0.75;entryDx=0;entryDy=0;endArrow=open;endFill=0;exitX=0.75;exitY=0;exitDx=0;exitDy=0;" edge="1" parent="1" source="C5WCr_9ebUvNWloEMeqP-4" target="C5WCr_9ebUvNWloEMeqP-35">
          <mxGeometry relative="1" as="geometry">
            <mxPoint x="1505" y="850" as="sourcePoint" />
            <Array as="points">
              <mxPoint x="1525" y="738" />
            </Array>
          </mxGeometry>
        </mxCell>
        <mxCell id="C5WCr_9ebUvNWloEMeqP-19" style="edgeStyle=orthogonalEdgeStyle;orthogonalLoop=1;jettySize=auto;html=1;entryX=0;entryY=0.25;entryDx=0;entryDy=0;dashed=1;endArrow=block;endFill=0;" edge="1" parent="1" source="C5WCr_9ebUvNWloEMeqP-20" target="C5WCr_9ebUvNWloEMeqP-29">
          <mxGeometry relative="1" as="geometry" />
        </mxCell>
        <mxCell id="C5WCr_9ebUvNWloEMeqP-20" value="&lt;p style=&quot;margin: 0px ; margin-top: 4px ; text-align: center&quot;&gt;&lt;b&gt;ContactData&lt;/b&gt;&lt;/p&gt;&lt;hr size=&quot;1&quot;&gt;&lt;p style=&quot;margin: 0px ; margin-left: 4px&quot;&gt;&lt;span&gt;- email: string&lt;/span&gt;&lt;br&gt;&lt;/p&gt;&lt;p style=&quot;margin: 0px 0px 0px 4px&quot;&gt;- mobile: string&lt;br&gt;&lt;/p&gt;&lt;hr size=&quot;1&quot;&gt;&lt;p style=&quot;margin: 0px ; margin-left: 4px&quot;&gt;+Contact(): cnstr&lt;/p&gt;&lt;p style=&quot;margin: 0px ; margin-left: 4px&quot;&gt;+Contact(mobile: string, email: string&lt;span&gt;): cnstr&lt;/span&gt;&lt;/p&gt;&lt;p style=&quot;margin: 0px ; margin-left: 4px&quot;&gt;&lt;span&gt;+ setEmail(new: string): bool&lt;/span&gt;&lt;br&gt;&lt;/p&gt;&lt;p style=&quot;margin: 0px ; margin-left: 4px&quot;&gt;&lt;span&gt;+ setMobile(new: string): bool&lt;/span&gt;&lt;/p&gt;" style="verticalAlign=top;align=left;overflow=fill;fontSize=12;fontFamily=Helvetica;html=1;spacingLeft=0;spacingRight=0;spacing=2;" vertex="1" parent="1">
          <mxGeometry x="775" y="570" width="250" height="140" as="geometry" />
        </mxCell>
        <mxCell id="C5WCr_9ebUvNWloEMeqP-21" style="edgeStyle=orthogonalEdgeStyle;orthogonalLoop=1;jettySize=auto;html=1;entryX=1;entryY=0.25;entryDx=0;entryDy=0;dashed=1;endArrow=block;endFill=0;" edge="1" parent="1" source="C5WCr_9ebUvNWloEMeqP-22" target="C5WCr_9ebUvNWloEMeqP-38">
          <mxGeometry relative="1" as="geometry" />
        </mxCell>
        <mxCell id="C5WCr_9ebUvNWloEMeqP-22" value="&lt;p style=&quot;margin: 0px ; margin-top: 4px ; text-align: center&quot;&gt;&lt;b&gt;PersonalData&lt;/b&gt;&lt;/p&gt;&lt;hr size=&quot;1&quot;&gt;&lt;p style=&quot;margin: 0px ; margin-left: 4px&quot;&gt;&lt;span&gt;- fi&lt;/span&gt;&lt;span&gt;rst_name: string&lt;/span&gt;&lt;/p&gt;&lt;p style=&quot;margin: 0px 0px 0px 4px&quot;&gt;- last_name: string&lt;/p&gt;&lt;p style=&quot;margin: 0px 0px 0px 4px&quot;&gt;- account_number: string&lt;/p&gt;&lt;hr size=&quot;1&quot;&gt;&lt;p style=&quot;margin: 0px ; margin-left: 4px&quot;&gt;+ PersonalData(): cnstr&lt;/p&gt;&lt;p style=&quot;margin: 0px ; margin-left: 4px&quot;&gt;+ PersonalData(fn: string, ln: string, an: string&lt;span&gt;): cnstr&lt;/span&gt;&lt;/p&gt;&lt;p style=&quot;margin: 0px ; margin-left: 4px&quot;&gt;&lt;span&gt;+ setFirstname(new: string): bool&lt;/span&gt;&lt;br&gt;&lt;/p&gt;&lt;p style=&quot;margin: 0px ; margin-left: 4px&quot;&gt;&lt;span&gt;+ setLastname(new: string): bool&lt;/span&gt;&lt;/p&gt;&lt;p style=&quot;margin: 0px ; margin-left: 4px&quot;&gt;&lt;span&gt;+ setAccountNumber(new: string): bool&lt;/span&gt;&lt;/p&gt;&lt;p style=&quot;margin: 0px ; margin-left: 4px&quot;&gt;&lt;span&gt;&lt;br&gt;&lt;/span&gt;&lt;/p&gt;" style="verticalAlign=top;align=left;overflow=fill;fontSize=12;fontFamily=Helvetica;html=1;spacingLeft=0;spacingRight=0;spacing=2;" vertex="1" parent="1">
          <mxGeometry x="1745" y="260" width="290" height="170" as="geometry" />
        </mxCell>
        <mxCell id="C5WCr_9ebUvNWloEMeqP-23" value="&lt;p style=&quot;margin: 0px ; margin-top: 4px ; text-align: center&quot;&gt;&lt;b&gt;&lt;font style=&quot;font-size: 10px&quot;&gt;&amp;lt;&amp;lt;Interface&amp;gt;&amp;gt;&lt;/font&gt;&lt;/b&gt;&lt;/p&gt;&lt;p style=&quot;margin: 0px ; margin-top: 4px ; text-align: center&quot;&gt;&lt;b&gt;ICredentials&lt;/b&gt;&lt;/p&gt;&lt;hr size=&quot;1&quot;&gt;&lt;p style=&quot;margin: 0px 0px 0px 4px&quot;&gt;+ getUsername(): string&lt;/p&gt;&lt;p style=&quot;margin: 0px 0px 0px 4px&quot;&gt;+ getPassword(): string&lt;/p&gt;&lt;p style=&quot;margin: 0px 0px 0px 4px&quot;&gt;+ getRole(): Role&lt;/p&gt;" style="verticalAlign=top;align=left;overflow=fill;fontSize=12;fontFamily=Helvetica;html=1;spacingLeft=0;spacingRight=0;spacing=2;" vertex="1" parent="1">
          <mxGeometry x="1815" y="1060" width="380" height="130" as="geometry" />
        </mxCell>
        <mxCell id="C5WCr_9ebUvNWloEMeqP-24" style="edgeStyle=orthogonalEdgeStyle;orthogonalLoop=1;jettySize=auto;html=1;entryX=1;entryY=0.25;entryDx=0;entryDy=0;dashed=1;endArrow=block;endFill=0;" edge="1" parent="1" source="C5WCr_9ebUvNWloEMeqP-25" target="C5WCr_9ebUvNWloEMeqP-35">
          <mxGeometry relative="1" as="geometry" />
        </mxCell>
        <mxCell id="C5WCr_9ebUvNWloEMeqP-25" value="&lt;p style=&quot;margin: 0px ; margin-top: 4px ; text-align: center&quot;&gt;&lt;b&gt;CustomizationData&lt;/b&gt;&lt;/p&gt;&lt;hr size=&quot;1&quot;&gt;&lt;p style=&quot;margin: 0px ; margin-left: 4px&quot;&gt;&lt;/p&gt;&amp;nbsp;- picture_link: string&lt;br&gt;&amp;nbsp;- background_variant: string&lt;br&gt;&lt;hr size=&quot;1&quot;&gt;&lt;p style=&quot;margin: 0px ; margin-left: 4px&quot;&gt;+ CustomizationData(): cnstr&lt;/p&gt;&lt;p style=&quot;margin: 0px ; margin-left: 4px&quot;&gt;+ CustomizationData(pl: string&lt;span&gt;): cnstr&lt;/span&gt;&lt;/p&gt;&lt;p style=&quot;margin: 0px ; margin-left: 4px&quot;&gt;&lt;span&gt;+ setPictureLink(new: string): bool&lt;/span&gt;&lt;/p&gt;&lt;p style=&quot;margin: 0px ; margin-left: 4px&quot;&gt;&lt;span&gt;+ setBackgroundVariant(new: string): bool&lt;/span&gt;&lt;/p&gt;&lt;p style=&quot;margin: 0px ; margin-left: 4px&quot;&gt;&lt;span&gt;&lt;br&gt;&lt;/span&gt;&lt;/p&gt;" style="verticalAlign=top;align=left;overflow=fill;fontSize=12;fontFamily=Helvetica;html=1;spacingLeft=0;spacingRight=0;spacing=2;" vertex="1" parent="1">
          <mxGeometry x="1875" y="540" width="290" height="140" as="geometry" />
        </mxCell>
        <mxCell id="C5WCr_9ebUvNWloEMeqP-26" style="edgeStyle=orthogonalEdgeStyle;orthogonalLoop=1;jettySize=auto;html=1;entryX=1.005;entryY=0.592;entryDx=0;entryDy=0;entryPerimeter=0;endArrow=block;endFill=0;dashed=1;" edge="1" parent="1" source="C5WCr_9ebUvNWloEMeqP-27" target="C5WCr_9ebUvNWloEMeqP-23">
          <mxGeometry relative="1" as="geometry" />
        </mxCell>
        <mxCell id="C5WCr_9ebUvNWloEMeqP-27" value="&lt;p style=&quot;margin: 0px ; margin-top: 4px ; text-align: center&quot;&gt;&lt;b&gt;NoCredentials&lt;/b&gt;&lt;/p&gt;&lt;hr size=&quot;1&quot;&gt;&lt;p style=&quot;margin: 0px ; margin-left: 4px&quot;&gt;&lt;br&gt;&lt;/p&gt;&lt;hr size=&quot;1&quot;&gt;&lt;p style=&quot;margin: 0px ; margin-left: 4px&quot;&gt;&lt;br&gt;&lt;/p&gt;" style="verticalAlign=top;align=left;overflow=fill;fontSize=12;fontFamily=Helvetica;html=1;spacingLeft=0;spacingRight=0;spacing=2;" vertex="1" parent="1">
          <mxGeometry x="2255" y="1160" width="110" height="100" as="geometry" />
        </mxCell>
        <mxCell id="C5WCr_9ebUvNWloEMeqP-28" value="&lt;p style=&quot;margin: 0px ; margin-top: 4px ; text-align: center&quot;&gt;&lt;b&gt;&lt;font style=&quot;font-size: 10px&quot;&gt;&amp;lt;&amp;lt;Interface&amp;gt;&amp;gt;&lt;/font&gt;&lt;/b&gt;&lt;/p&gt;&lt;p style=&quot;margin: 0px ; margin-top: 4px ; text-align: center&quot;&gt;&lt;b&gt;ISupportedCharities&lt;/b&gt;&lt;/p&gt;&lt;hr size=&quot;1&quot;&gt;&lt;p style=&quot;margin: 0px ; margin-left: 4px&quot;&gt;...&lt;/p&gt;" style="verticalAlign=top;align=left;overflow=fill;fontSize=12;fontFamily=Helvetica;html=1;spacingLeft=0;spacingRight=0;spacing=2;" vertex="1" parent="1">
          <mxGeometry x="1975" y="1340" width="210" height="130" as="geometry" />
        </mxCell>
        <mxCell id="C5WCr_9ebUvNWloEMeqP-29" value="&lt;p style=&quot;margin: 0px ; margin-top: 4px ; text-align: center&quot;&gt;&lt;b&gt;&lt;font style=&quot;font-size: 10px&quot;&gt;&amp;lt;&amp;lt;Interface&amp;gt;&amp;gt;&lt;/font&gt;&lt;/b&gt;&lt;/p&gt;&lt;p style=&quot;margin: 0px ; margin-top: 4px ; text-align: center&quot;&gt;&lt;b&gt;IContactData&lt;/b&gt;&lt;/p&gt;&lt;hr size=&quot;1&quot;&gt;&lt;p style=&quot;margin: 0px ; margin-left: 4px&quot;&gt;&lt;span&gt;+ getEmail(): string&lt;/span&gt;&lt;/p&gt;&lt;p style=&quot;margin: 0px 0px 0px 4px&quot;&gt;+ getMobile(): string&lt;/p&gt;" style="verticalAlign=top;align=left;overflow=fill;fontSize=12;fontFamily=Helvetica;html=1;spacingLeft=0;spacingRight=0;spacing=2;" vertex="1" parent="1">
          <mxGeometry x="1065" y="660" width="210" height="110" as="geometry" />
        </mxCell>
        <mxCell id="C5WCr_9ebUvNWloEMeqP-30" style="edgeStyle=orthogonalEdgeStyle;orthogonalLoop=1;jettySize=auto;html=1;entryX=0;entryY=0.5;entryDx=0;entryDy=0;dashed=1;endArrow=block;endFill=0;" edge="1" parent="1" source="C5WCr_9ebUvNWloEMeqP-31" target="C5WCr_9ebUvNWloEMeqP-29">
          <mxGeometry relative="1" as="geometry" />
        </mxCell>
        <mxCell id="C5WCr_9ebUvNWloEMeqP-31" value="&lt;p style=&quot;margin: 0px ; margin-top: 4px ; text-align: center&quot;&gt;&lt;b&gt;NoContactData&lt;/b&gt;&lt;/p&gt;&lt;hr size=&quot;1&quot;&gt;&lt;p style=&quot;margin: 0px ; margin-left: 4px&quot;&gt;&lt;br&gt;&lt;/p&gt;&lt;hr size=&quot;1&quot;&gt;&lt;p style=&quot;margin: 0px ; margin-left: 4px&quot;&gt;&lt;br&gt;&lt;/p&gt;" style="verticalAlign=top;align=left;overflow=fill;fontSize=12;fontFamily=Helvetica;html=1;spacingLeft=0;spacingRight=0;spacing=2;" vertex="1" parent="1">
          <mxGeometry x="865" y="780" width="160" height="80" as="geometry" />
        </mxCell>
        <mxCell id="C5WCr_9ebUvNWloEMeqP-32" value="&lt;p style=&quot;margin: 0px ; margin-top: 4px ; text-align: center&quot;&gt;&lt;b&gt;&lt;font style=&quot;font-size: 10px&quot;&gt;&amp;lt;&amp;lt;Interface&amp;gt;&amp;gt;&lt;/font&gt;&lt;/b&gt;&lt;/p&gt;&lt;p style=&quot;margin: 0px ; margin-top: 4px ; text-align: center&quot;&gt;&lt;b&gt;IAdressData&lt;/b&gt;&lt;/p&gt;&lt;hr size=&quot;1&quot;&gt;&lt;p style=&quot;margin: 0px ; margin-left: 4px&quot;&gt;&lt;span&gt;+ getLand(): string&lt;/span&gt;&lt;/p&gt;&lt;p style=&quot;margin: 0px 0px 0px 4px&quot;&gt;+ getPostcode(): string&lt;/p&gt;&lt;p style=&quot;margin: 0px 0px 0px 4px&quot;&gt;+ getStreetName(): string&lt;/p&gt;&lt;p style=&quot;margin: 0px 0px 0px 4px&quot;&gt;+ getStreetNumber(): int&lt;/p&gt;" style="verticalAlign=top;align=left;overflow=fill;fontSize=12;fontFamily=Helvetica;html=1;spacingLeft=0;spacingRight=0;spacing=2;" vertex="1" parent="1">
          <mxGeometry x="1205" y="380" width="210" height="130" as="geometry" />
        </mxCell>
        <mxCell id="C5WCr_9ebUvNWloEMeqP-33" style="edgeStyle=orthogonalEdgeStyle;orthogonalLoop=1;jettySize=auto;html=1;entryX=0;entryY=0.5;entryDx=0;entryDy=0;dashed=1;endArrow=block;endFill=0;" edge="1" parent="1" source="C5WCr_9ebUvNWloEMeqP-34" target="C5WCr_9ebUvNWloEMeqP-32">
          <mxGeometry relative="1" as="geometry" />
        </mxCell>
        <mxCell id="C5WCr_9ebUvNWloEMeqP-34" value="&lt;p style=&quot;margin: 0px ; margin-top: 4px ; text-align: center&quot;&gt;&lt;b&gt;NoAdressData&lt;/b&gt;&lt;/p&gt;&lt;hr size=&quot;1&quot;&gt;&lt;p style=&quot;margin: 0px ; margin-left: 4px&quot;&gt;&lt;br&gt;&lt;/p&gt;&lt;hr size=&quot;1&quot;&gt;&lt;p style=&quot;margin: 0px ; margin-left: 4px&quot;&gt;&lt;br&gt;&lt;/p&gt;" style="verticalAlign=top;align=left;overflow=fill;fontSize=12;fontFamily=Helvetica;html=1;spacingLeft=0;spacingRight=0;spacing=2;" vertex="1" parent="1">
          <mxGeometry x="1035" y="450" width="110" height="80" as="geometry" />
        </mxCell>
        <mxCell id="C5WCr_9ebUvNWloEMeqP-35" value="&lt;p style=&quot;margin: 0px ; margin-top: 4px ; text-align: center&quot;&gt;&lt;b&gt;&lt;font style=&quot;font-size: 10px&quot;&gt;&amp;lt;&amp;lt;Interface&amp;gt;&amp;gt;&lt;/font&gt;&lt;/b&gt;&lt;/p&gt;&lt;p style=&quot;margin: 0px ; margin-top: 4px ; text-align: center&quot;&gt;&lt;b&gt;ICustomizationData&lt;/b&gt;&lt;/p&gt;&lt;hr size=&quot;1&quot;&gt;&lt;p style=&quot;margin: 0px ; margin-left: 4px&quot;&gt;&lt;span&gt;+ getPictureLink(): string&lt;/span&gt;&lt;br&gt;&lt;/p&gt;&lt;p style=&quot;margin: 0px 0px 0px 4px&quot;&gt;+ getBackgroundVariant(): string&lt;/p&gt;" style="verticalAlign=top;align=left;overflow=fill;fontSize=12;fontFamily=Helvetica;html=1;spacingLeft=0;spacingRight=0;spacing=2;" vertex="1" parent="1">
          <mxGeometry x="1625" y="640" width="210" height="130" as="geometry" />
        </mxCell>
        <mxCell id="C5WCr_9ebUvNWloEMeqP-36" style="edgeStyle=orthogonalEdgeStyle;orthogonalLoop=1;jettySize=auto;html=1;dashed=1;endArrow=block;endFill=0;" edge="1" parent="1" source="C5WCr_9ebUvNWloEMeqP-37" target="C5WCr_9ebUvNWloEMeqP-35">
          <mxGeometry relative="1" as="geometry" />
        </mxCell>
        <mxCell id="C5WCr_9ebUvNWloEMeqP-37" value="&lt;p style=&quot;margin: 0px ; margin-top: 4px ; text-align: center&quot;&gt;&lt;b&gt;NoCustomizationData&lt;/b&gt;&lt;/p&gt;&lt;hr size=&quot;1&quot;&gt;&lt;p style=&quot;margin: 0px ; margin-left: 4px&quot;&gt;&lt;br&gt;&lt;/p&gt;&lt;hr size=&quot;1&quot;&gt;&lt;p style=&quot;margin: 0px ; margin-left: 4px&quot;&gt;&lt;br&gt;&lt;/p&gt;" style="verticalAlign=top;align=left;overflow=fill;fontSize=12;fontFamily=Helvetica;html=1;spacingLeft=0;spacingRight=0;spacing=2;" vertex="1" parent="1">
          <mxGeometry x="1881" y="720" width="144" height="80" as="geometry" />
        </mxCell>
        <mxCell id="C5WCr_9ebUvNWloEMeqP-38" value="&lt;p style=&quot;margin: 0px ; margin-top: 4px ; text-align: center&quot;&gt;&lt;b&gt;&lt;font style=&quot;font-size: 10px&quot;&gt;&amp;lt;&amp;lt;Interface&amp;gt;&amp;gt;&lt;/font&gt;&lt;/b&gt;&lt;/p&gt;&lt;p style=&quot;margin: 0px ; margin-top: 4px ; text-align: center&quot;&gt;&lt;b&gt;IPersonalData&lt;/b&gt;&lt;/p&gt;&lt;hr size=&quot;1&quot;&gt;&lt;p style=&quot;margin: 0px 0px 0px 4px&quot;&gt;+ getFirstname(): string&lt;/p&gt;&lt;p style=&quot;margin: 0px 0px 0px 4px&quot;&gt;+ getLastname(): string&lt;/p&gt;&lt;p style=&quot;margin: 0px 0px 0px 4px&quot;&gt;+ getAccountNumber(): string&lt;/p&gt;" style="verticalAlign=top;align=left;overflow=fill;fontSize=12;fontFamily=Helvetica;html=1;spacingLeft=0;spacingRight=0;spacing=2;" vertex="1" parent="1">
          <mxGeometry x="1475" y="380" width="210" height="130" as="geometry" />
        </mxCell>
        <mxCell id="C5WCr_9ebUvNWloEMeqP-39" style="edgeStyle=orthogonalEdgeStyle;orthogonalLoop=1;jettySize=auto;html=1;dashed=1;endArrow=block;endFill=0;" edge="1" parent="1" source="C5WCr_9ebUvNWloEMeqP-40" target="C5WCr_9ebUvNWloEMeqP-38">
          <mxGeometry relative="1" as="geometry" />
        </mxCell>
        <mxCell id="C5WCr_9ebUvNWloEMeqP-40" value="&lt;p style=&quot;margin: 0px ; margin-top: 4px ; text-align: center&quot;&gt;&lt;b&gt;NoPersonalData&lt;/b&gt;&lt;/p&gt;&lt;hr size=&quot;1&quot;&gt;&lt;p style=&quot;margin: 0px ; margin-left: 4px&quot;&gt;&lt;br&gt;&lt;/p&gt;&lt;hr size=&quot;1&quot;&gt;&lt;p style=&quot;margin: 0px ; margin-left: 4px&quot;&gt;&lt;br&gt;&lt;/p&gt;" style="verticalAlign=top;align=left;overflow=fill;fontSize=12;fontFamily=Helvetica;html=1;spacingLeft=0;spacingRight=0;spacing=2;" vertex="1" parent="1">
          <mxGeometry x="1735" y="490" width="110" height="80" as="geometry" />
        </mxCell>
        <mxCell id="C5WCr_9ebUvNWloEMeqP-41" style="edgeStyle=orthogonalEdgeStyle;orthogonalLoop=1;jettySize=auto;html=1;dashed=1;endArrow=block;endFill=0;" edge="1" parent="1" source="C5WCr_9ebUvNWloEMeqP-42" target="C5WCr_9ebUvNWloEMeqP-28">
          <mxGeometry relative="1" as="geometry" />
        </mxCell>
        <mxCell id="C5WCr_9ebUvNWloEMeqP-42" value="&lt;p style=&quot;margin: 0px ; margin-top: 4px ; text-align: center&quot;&gt;&lt;b&gt;NoCharities&lt;/b&gt;&lt;/p&gt;&lt;hr size=&quot;1&quot;&gt;&lt;p style=&quot;margin: 0px ; margin-left: 4px&quot;&gt;&lt;br&gt;&lt;/p&gt;&lt;hr size=&quot;1&quot;&gt;&lt;p style=&quot;margin: 0px ; margin-left: 4px&quot;&gt;&lt;br&gt;&lt;/p&gt;" style="verticalAlign=top;align=left;overflow=fill;fontSize=12;fontFamily=Helvetica;html=1;spacingLeft=0;spacingRight=0;spacing=2;" vertex="1" parent="1">
          <mxGeometry x="2275" y="1440" width="110" height="100" as="geometry" />
        </mxCell>
        <mxCell id="C5WCr_9ebUvNWloEMeqP-43" style="edgeStyle=orthogonalEdgeStyle;orthogonalLoop=1;jettySize=auto;html=1;entryX=1;entryY=0.25;entryDx=0;entryDy=0;dashed=1;endArrow=block;endFill=0;" edge="1" parent="1" source="C5WCr_9ebUvNWloEMeqP-45" target="C5WCr_9ebUvNWloEMeqP-28">
          <mxGeometry relative="1" as="geometry" />
        </mxCell>
        <mxCell id="C5WCr_9ebUvNWloEMeqP-44" value="&amp;nbsp;-chartities[]&amp;nbsp;" style="edgeStyle=orthogonalEdgeStyle;orthogonalLoop=1;jettySize=auto;html=1;entryX=0;entryY=0.5;entryDx=0;entryDy=0;endArrow=open;endFill=0;" edge="1" parent="1" source="C5WCr_9ebUvNWloEMeqP-45" target="C5WCr_9ebUvNWloEMeqP-8">
          <mxGeometry relative="1" as="geometry" />
        </mxCell>
        <mxCell id="C5WCr_9ebUvNWloEMeqP-45" value="&lt;p style=&quot;margin: 0px ; margin-top: 4px ; text-align: center&quot;&gt;&lt;b&gt;CharityList&lt;/b&gt;&lt;/p&gt;&lt;hr size=&quot;1&quot;&gt;&lt;p style=&quot;margin: 0px ; margin-left: 4px&quot;&gt;- user_id: int&lt;/p&gt;&lt;p style=&quot;margin: 0px ; margin-left: 4px&quot;&gt;...&lt;/p&gt;&lt;hr size=&quot;1&quot;&gt;&lt;p style=&quot;margin: 0px ; margin-left: 4px&quot;&gt;...&lt;/p&gt;" style="verticalAlign=top;align=left;overflow=fill;fontSize=12;fontFamily=Helvetica;html=1;spacingLeft=0;spacingRight=0;spacing=2;" vertex="1" parent="1">
          <mxGeometry x="2275" y="1300" width="80" height="100" as="geometry" />
        </mxCell>
        <mxCell id="C5WCr_9ebUvNWloEMeqP-46" value="&amp;nbsp;-users[]&amp;nbsp;" style="edgeStyle=orthogonalEdgeStyle;orthogonalLoop=1;jettySize=auto;html=1;endArrow=open;endFill=0;" edge="1" parent="1" source="C5WCr_9ebUvNWloEMeqP-52" target="C5WCr_9ebUvNWloEMeqP-4">
          <mxGeometry relative="1" as="geometry">
            <mxPoint x="1165" y="1120" as="sourcePoint" />
          </mxGeometry>
        </mxCell>
        <mxCell id="C5WCr_9ebUvNWloEMeqP-47" style="edgeStyle=orthogonalEdgeStyle;orthogonalLoop=1;jettySize=auto;html=1;endArrow=block;endFill=0;dashed=1;" edge="1" parent="1" source="C5WCr_9ebUvNWloEMeqP-51" target="C5WCr_9ebUvNWloEMeqP-6">
          <mxGeometry relative="1" as="geometry" />
        </mxCell>
        <mxCell id="C5WCr_9ebUvNWloEMeqP-48" style="edgeStyle=orthogonalEdgeStyle;orthogonalLoop=1;jettySize=auto;html=1;entryX=0;entryY=0.5;entryDx=0;entryDy=0;endArrow=open;endFill=0;" edge="1" parent="1" source="C5WCr_9ebUvNWloEMeqP-51" target="C5WCr_9ebUvNWloEMeqP-52">
          <mxGeometry relative="1" as="geometry" />
        </mxCell>
        <mxCell id="C5WCr_9ebUvNWloEMeqP-49" value="&amp;nbsp;- userStorage&amp;nbsp;" style="edgeLabel;html=1;align=center;verticalAlign=middle;resizable=0;points=[];" vertex="1" connectable="0" parent="C5WCr_9ebUvNWloEMeqP-48">
          <mxGeometry x="0.3008" y="1" relative="1" as="geometry">
            <mxPoint x="-17" y="1" as="offset" />
          </mxGeometry>
        </mxCell>
        <mxCell id="C5WCr_9ebUvNWloEMeqP-50" style="edgeStyle=orthogonalEdgeStyle;orthogonalLoop=1;jettySize=auto;html=1;entryX=0.5;entryY=1;entryDx=0;entryDy=0;endArrow=block;endFill=0;dashed=1;" edge="1" parent="1" source="C5WCr_9ebUvNWloEMeqP-51" target="C5WCr_9ebUvNWloEMeqP-53">
          <mxGeometry relative="1" as="geometry" />
        </mxCell>
        <mxCell id="C5WCr_9ebUvNWloEMeqP-51" value="&lt;p style=&quot;margin: 0px ; margin-top: 4px ; text-align: center&quot;&gt;&lt;b&gt;UserController&lt;/b&gt;&lt;/p&gt;&lt;hr size=&quot;1&quot;&gt;&lt;p style=&quot;margin: 0px ; margin-left: 4px&quot;&gt;...&lt;/p&gt;&lt;hr size=&quot;1&quot;&gt;&lt;p style=&quot;margin: 0px ; margin-left: 4px&quot;&gt;...&lt;/p&gt;" style="verticalAlign=top;align=left;overflow=fill;fontSize=12;fontFamily=Helvetica;html=1;spacingLeft=0;spacingRight=0;spacing=2;" vertex="1" parent="1">
          <mxGeometry x="725" y="1070" width="180" height="100" as="geometry" />
        </mxCell>
        <mxCell id="C5WCr_9ebUvNWloEMeqP-52" value="&lt;p style=&quot;margin: 0px ; margin-top: 4px ; text-align: center&quot;&gt;&lt;b&gt;UserDataStorage&lt;/b&gt;&lt;/p&gt;&lt;hr size=&quot;1&quot;&gt;&lt;p style=&quot;margin: 0px ; margin-left: 4px&quot;&gt;- latest_id: int&lt;/p&gt;&lt;hr size=&quot;1&quot;&gt;&lt;p style=&quot;margin: 0px ; margin-left: 4px&quot;&gt;+ UserDataStorage(): cnstr&lt;/p&gt;&lt;p style=&quot;margin: 0px ; margin-left: 4px&quot;&gt;+ UserDataStorage(last_id: int): cnstr&lt;/p&gt;&lt;p style=&quot;margin: 0px ; margin-left: 4px&quot;&gt;+ getUsers(): User[]&lt;/p&gt;&lt;p style=&quot;margin: 0px ; margin-left: 4px&quot;&gt;+ addUser(new: User): bool&lt;/p&gt;&lt;p style=&quot;margin: 0px ; margin-left: 4px&quot;&gt;+ findUser(id: int): User&lt;/p&gt;&lt;p style=&quot;margin: 0px ; margin-left: 4px&quot;&gt;+ removeUser(id: int): bool&lt;/p&gt;" style="verticalAlign=top;align=left;overflow=fill;fontSize=12;fontFamily=Helvetica;html=1;spacingLeft=0;spacingRight=0;spacing=2;" vertex="1" parent="1">
          <mxGeometry x="1005" y="1042.5" width="210" height="155" as="geometry" />
        </mxCell>
        <mxCell id="C5WCr_9ebUvNWloEMeqP-53" value="&lt;p style=&quot;margin: 0px ; margin-top: 4px ; text-align: center&quot;&gt;&lt;b&gt;ILoginVerification&lt;/b&gt;&lt;/p&gt;&lt;hr size=&quot;1&quot;&gt;&lt;p style=&quot;margin: 0px ; margin-left: 4px&quot;&gt;&lt;span&gt;+ MatchingCredentials(username: string, password: string) : boolean&lt;/span&gt;&lt;/p&gt;" style="verticalAlign=top;align=left;overflow=fill;fontSize=12;fontFamily=Helvetica;html=1;spacingLeft=0;spacingRight=0;spacing=2;shadow=0;glass=0;" vertex="1" parent="1">
          <mxGeometry x="620" y="950" width="390" height="50" as="geometry" />
        </mxCell>
        <mxCell id="C5WCr_9ebUvNWloEMeqP-54" value="More often then not, when&lt;br&gt;User-class will be used, not&lt;br&gt;all it can provide will be&lt;br&gt;necessary. For covering&lt;br&gt;unnecessary data are&lt;br&gt;made &quot;No*&quot;-interfaces" style="html=1;verticalAlign=top;fillColor=#dae8fc;strokeColor=#6c8ebf;" vertex="1" parent="1">
          <mxGeometry x="1675" y="940" width="150" height="100" as="geometry" />
        </mxCell>
      </root>
    </mxGraphModel>
  </diagram>
</mxfile>
